<svg width="20" height="20" viewBox="0 0 20 20" fill="none" xmlns="http://www.w3.org/2000/svg">
<path opacity="0.16" d="M13 13H7C6.13869 13.0001 5.3004 13.278 4.60967 13.7926C3.91894 14.3071 3.41264 15.0308 3.166 15.856C4.01001 16.8431 5.05808 17.6353 6.23792 18.1781C7.41776 18.7209 8.70129 19.0013 10 19C11.2987 19.0013 12.5822 18.7209 13.7621 18.1781C14.9419 17.6353 15.99 16.8431 16.834 15.856C16.5874 15.0308 16.0811 14.3071 15.3903 13.7926C14.6996 13.278 13.8613 13.0001 13 13Z" fill="#CCCCCC"/>
<path d="M19 9.99999C19.003 11.7868 18.4715 13.5336 17.474 15.016C16.6514 16.2429 15.5391 17.2483 14.2355 17.9432C12.9319 18.638 11.4772 19.001 10 19C8.52279 19.001 7.06808 18.638 5.76451 17.9432C4.46093 17.2483 3.34865 16.2429 2.526 15.016C1.74273 13.8484 1.2439 12.5135 1.06951 11.1184C0.895109 9.72331 1.05 8.30674 1.52175 6.98227C1.9935 5.6578 2.769 4.46228 3.78607 3.49154C4.80314 2.52081 6.0335 1.80186 7.37851 1.39233C8.72352 0.982799 10.1458 0.894084 11.5312 1.13329C12.9167 1.3725 14.2269 1.93299 15.3567 2.76981C16.4865 3.60663 17.4046 4.69651 18.0373 5.95209C18.67 7.20767 18.9997 8.59401 19 9.99999Z" stroke="#CCCCCC" stroke-width="2"/>
<path d="M11 7C11 7.26522 10.8946 7.51957 10.7071 7.70711C10.5196 7.89464 10.2652 8 10 8V10C10.7957 10 11.5587 9.68393 12.1213 9.12132C12.6839 8.55871 13 7.79565 13 7H11ZM10 8C9.73479 8 9.48043 7.89464 9.2929 7.70711C9.10536 7.51957 9 7.26522 9 7H7C7 7.79565 7.31607 8.55871 7.87868 9.12132C8.44129 9.68393 9.20435 10 10 10V8ZM9 7C9 6.73478 9.10536 6.48043 9.2929 6.29289C9.48043 6.10536 9.73479 6 10 6V4C9.20435 4 8.44129 4.31607 7.87868 4.87868C7.31607 5.44129 7 6.20435 7 7H9ZM10 6C10.2652 6 10.5196 6.10536 10.7071 6.29289C10.8946 6.48043 11 6.73478 11 7H13C13 6.20435 12.6839 5.44129 12.1213 4.87868C11.5587 4.31607 10.7957 4 10 4V6ZM3.166 15.856L2.207 15.571L2.052 16.094L2.407 16.507L3.166 15.856ZM16.834 15.856L17.594 16.507L17.948 16.094L17.793 15.571L16.834 15.856ZM7 14H13V12H7V14ZM7 12C5.92314 12 4.87502 12.3475 4.01147 12.9909C3.14793 13.6343 2.51508 14.5391 2.207 15.571L4.124 16.141C4.30926 15.5222 4.68915 14.9797 5.20727 14.594C5.72538 14.2083 6.35408 14 7 14V12ZM10 18C8.84549 18.0013 7.70444 17.7521 6.65561 17.2695C5.60678 16.787 4.67515 16.0826 3.925 15.205L2.407 16.507C3.34489 17.6035 4.50939 18.4836 5.82023 19.0866C7.13108 19.6897 8.5571 20.0013 10 20V18ZM13 14C14.357 14 15.506 14.902 15.876 16.142L17.793 15.571C17.485 14.5393 16.8513 13.6345 15.9879 12.9912C15.1246 12.3478 14.0767 12.0002 13 12V14ZM16.075 15.205C15.3249 16.0826 14.3932 16.787 13.3444 17.2695C12.2956 17.7521 11.1545 18.0013 10 18V20C11.4429 20.0013 12.8689 19.6897 14.1798 19.0866C15.4906 18.4836 16.6561 17.6035 17.594 16.507L16.075 15.205Z" fill="#CCCCCC"/>
</svg>
